<?xml version="1.0" encoding="UTF-8"?>
<svg xmlns="http://www.w3.org/2000/svg" version="1.1" viewBox="0 0 507.15 510.21">
  <defs>
    <style>
      .cls-1 {
        fill: #4475ab;
      }

      .cls-1, .cls-2, .cls-3, .cls-4, .cls-5, .cls-6 {
        stroke-width: 0px;
      }

      .cls-2, .cls-3 {
        fill: #bfc8de;
      }

      .cls-3 {
        opacity: .74;
      }

      .cls-4 {
        fill: #d4603f;
      }

      .cls-5 {
        fill: #1b314f;
      }

      .cls-6 {
        fill: #fff;
      }
    </style>
  </defs>
  <g id="BACKGROUND">
    <rect class="cls-2" x="4" y="4.28" width="500" height="500" rx="250" ry="250"/>
  </g>
  <g id="OBJECTS">
    <g>
      <path class="cls-5" d="M226.43,85.1h55.14c9.74,0,17.64,7.9,17.64,17.64v13.74h-90.42v-13.74c0-9.74,7.9-17.64,17.64-17.64Z"/>
      <path class="cls-6" d="M325.48,423.45h-186.78V124.26h230.59v255.38l-43.81,43.81Z"/>
      <rect class="cls-1" x="186.2" y="109.97" width="135.6" height="39.13"/>
      <path class="cls-1" d="M329.18,423.45v-24.16c0-8.76,7.1-15.86,15.86-15.86h24.26l-40.12,40.02Z"/>
      <circle class="cls-3" cx="205.18" cy="204.76" r="14.75" transform="translate(-41.31 52.22) rotate(-13.19)"/>
      <circle class="cls-3" cx="205.18" cy="270.05" r="14.75" transform="translate(-56.21 53.94) rotate(-13.19)"/>
      <circle class="cls-3" cx="205.18" cy="342.94" r="14.75" transform="translate(-72.84 55.87) rotate(-13.19)"/>
      <path class="cls-4" d="M190.16,263.5c4.35,4.13,8.3,8.65,11.76,13.55,1.28,1.82,4.41,2.35,5.57,0,5.55-11.23,13.19-21.22,22.59-29.5,1.31-1.15,1.18-3.38,0-4.56-1.3-1.3-3.25-1.15-4.56,0-9.76,8.6-17.83,19.14-23.59,30.81h5.57c-3.77-5.35-8.02-10.34-12.76-14.86-3.01-2.86-7.57,1.69-4.56,4.56h0Z"/>
      <path class="cls-4" d="M190.16,199.46c4.35,4.13,8.3,8.65,11.76,13.55,1.28,1.82,4.41,2.35,5.57,0,5.55-11.23,13.19-21.22,22.59-29.5,1.31-1.15,1.18-3.38,0-4.56-1.3-1.3-3.25-1.15-4.56,0-9.76,8.6-17.83,19.14-23.59,30.81h5.57c-3.77-5.35-8.02-10.34-12.76-14.86-3.01-2.86-7.57,1.69-4.56,4.56h0Z"/>
      <g>
        <path class="cls-3" d="M323.19,209.91h-84.06c-3.68,0-6.67-2.99-6.67-6.67h0c0-3.68,2.99-6.67,6.67-6.67h84.06c3.68,0,6.67,2.99,6.67,6.67h0c0,3.68-2.99,6.67-6.67,6.67Z"/>
        <path class="cls-3" d="M323.19,279.3h-84.06c-3.68,0-6.67-2.99-6.67-6.67h0c0-3.68,2.99-6.67,6.67-6.67h84.06c3.68,0,6.67,2.99,6.67,6.67h0c0,3.68-2.99,6.67-6.67,6.67Z"/>
        <path class="cls-3" d="M323.19,352.68h-84.06c-3.68,0-6.67-2.99-6.67-6.67h0c0-3.68,2.99-6.67,6.67-6.67h84.06c3.68,0,6.67,2.99,6.67,6.67h0c0,3.68-2.99,6.67-6.67,6.67Z"/>
      </g>
    </g>
  </g>
</svg>